<?xml version="1.0" encoding="UTF-8"?>
<svg id="Layer_1" xmlns="http://www.w3.org/2000/svg" version="1.1" viewBox="0 0 400 150">
  <!-- Generator: Adobe Illustrator 29.8.5, SVG Export Plug-In . SVG Version: 2.1.1 Build 2)  -->
  <path d="M295.46,125.65" fill="#e69605" stroke="#841333" stroke-miterlimit="10" stroke-width="4"/>
  <path d="M22.27,33.3c0,4.22-2.99,7.49-7.8,7.49s-7.6-3.31-7.6-7.49,3.11-7.6,7.68-7.6,7.6,3.31,7.68,7.6c0,0,.04,0,.04,0ZM7.66,104.1v-55.32h13.83v55.32H7.66Z" fill="#e69605"/>
  <path d="M36.18,65.21c0-6.34-.12-11.7-.43-16.47h12.06l.67,8.27h.32c2.32-4.33,8.27-9.53,17.3-9.53,9.49,0,19.31,6.26,19.31,23.76v32.82h-13.71v-31.24c0-7.96-2.92-13.99-10.36-13.99-5.48,0-9.26,3.98-10.72,8.19-.43,1.26-.55,2.95-.55,4.53v32.5h-13.83v-38.85h-.06,0Z" fill="#e69605"/>
  <path d="M115.14,32.98v15.8h13.04v10.44h-13.04v24.43c0,6.7,1.77,10.2,7.01,10.2,2.32,0,4.14-.35,5.36-.67l.24,10.68c-2.01.79-5.59,1.38-9.93,1.38-5,0-9.26-1.69-11.82-4.53-2.92-3.19-4.26-8.19-4.26-15.44v-26h-7.8v-10.44h7.8v-12.49l13.4-3.31v-.04h0Z" fill="#e69605"/>
  <path d="M153.16,33.3c0,4.22-2.99,7.49-7.8,7.49s-7.6-3.31-7.6-7.49,3.11-7.6,7.68-7.6,7.6,3.31,7.68,7.6h.04ZM138.58,104.1v-55.32h13.83v55.32h-13.83Z" fill="#e69605"/>
  <path d="M393.13,32.16c0,4.22-2.99,7.49-7.8,7.49s-7.6-3.31-7.6-7.49,3.11-7.6,7.68-7.6,7.6,3.31,7.68,7.6c0,0,.04,0,.04,0ZM378.51,102.96v-55.32h13.83v55.32h-13.83Z" fill="#18181b"/>
  <path d="M167.1,23.41h13.83v80.65h-13.83V23.41h0Z" fill="#e69605"/>
  <path d="M226.32,104.1l-.91-6.15h-.35c-3.35,4.33-9.02,7.37-16.07,7.37-10.91,0-17.06-8.08-17.06-16.47,0-13.99,12.17-21,32.23-20.92v-.91c0-3.62-1.46-9.65-11.03-9.65-5.36,0-10.91,1.69-14.62,4.1l-2.68-9.1c4.02-2.48,11.03-4.89,19.62-4.89,17.41,0,22.42,11.23,22.42,23.28v19.97c0,5,.24,9.89.79,13.28h-12.37l.04.08h0ZM224.55,77.03c-9.69-.24-18.95,1.93-18.95,10.32,0,5.44,3.47,7.96,7.8,7.96,5.48,0,9.49-3.62,10.72-7.6.35-1.02.43-2.17.43-3.07v-7.6h0Z" fill="#e69605"/>
  <path d="M288.76,96.45h-.24c-3.23,5.36-8.9,8.86-16.82,8.86-12.17,0-22.73-10.8-22.73-28.05,0-20.21,12.73-29.75,24.31-29.75,7.6,0,12.92,3.31,15.84,8.51l.24.12.32-7.37h13.28c-.24,5-.43,10.2-.43,16.04v56.62c0,2.88-2.29,5.16-5.08,5.16h-8.63v-30.1l-.04-.04h-.02ZM288.76,71.59c0-1.14-.12-2.36-.35-3.39-1.22-5.24-5.59-9.65-11.7-9.65-8.83,0-13.83,7.6-13.83,18.04s4.81,17.73,13.51,17.73c5.59,0,10.16-3.62,11.7-9.22.43-1.38.67-2.95.67-4.33v-9.22.04h0Z" fill="#e69605"/>
  <path d="M347.74,104.1l-.91-6.15h-.35c-3.35,4.33-9.02,7.37-16.07,7.37-10.91,0-17.06-8.08-17.06-16.47,0-13.99,12.17-21,32.23-20.92v-.91c0-3.62-1.46-9.65-11.03-9.65-5.36,0-10.91,1.69-14.62,4.1l-2.68-9.1c4.02-2.48,11.03-4.89,19.62-4.89,17.41,0,22.42,11.23,22.42,23.28v19.97c0,5,.24,9.89.79,13.28h-12.37l.04.08h-.01ZM345.97,77.03c-9.69-.24-18.95,1.93-18.95,10.32,0,5.44,3.47,7.96,7.8,7.96,5.48,0,9.49-3.62,10.72-7.6.35-1.02.43-2.17.43-3.07v-7.6h0Z" fill="#18181b"/>
  <path d="M283.68,110.09" fill="#e69605"/>
  <path d="M324.66,82.11" fill="#18181b"/>
</svg>